<svg xmlns="http://www.w3.org/2000/svg" xmlns:xlink="http://www.w3.org/1999/xlink" width="93.476" height="155.257" viewBox="0 0 93.476 155.257">
  <defs>
    <linearGradient id="linear-gradient" x1="0.5" y1="0.5" x2="0.5" y2="1" gradientUnits="objectBoundingBox">
      <stop offset="0" stop-color="#006fff"/>
      <stop offset="1" stop-color="#003880" stop-opacity="0"/>
    </linearGradient>
  </defs>
  <g id="Group_9" data-name="Group 9" transform="translate(-85.524 -119.743)">
    <path id="flb_logo" data-name="flb logo" d="M286.348,248.271l-15.111-11.4v-5.7l-4.725-3.563v2.85l2.362,1.782v-5.7l-4.725-3.563v-115.7H270.2v-5.7h-3.027v2.85h6.053v-5.7h73.793c5.011,0,7.038,3.314,4.523,7.4l-8.257,13.4c-2.515,4.082-8.625,7.4-13.636,7.4H302.515a8.831,8.831,0,0,0-9.08,8.55v5.421a8.831,8.831,0,0,0,9.08,8.55h10.162l1.875,5.027h5.658l-.938-2.514h-2.829l1.875,5.027h5.658l2.928,7.85c1.516,4.065-.968,7.366-5.543,7.366H300.439a8.564,8.564,0,0,0-8.862,8.548l1.64,64.319-4.725-3.563.145,5.7L291,248.985l-.073-2.849-4.725-3.563Z" transform="translate(-173.626 26.015)" opacity="0.43" fill="url(#linear-gradient)"/>
    <path id="flb_logo-2" data-name="flb logo" d="M286.348,248.271l-15.111-11.4v-5.7l-4.725-3.563v2.85l2.362,1.782v-5.7l-4.725-3.563v-115.7H270.2v-5.7h-3.027v2.85h6.053v-5.7h73.793c5.011,0,7.038,3.314,4.523,7.4l-8.257,13.4c-2.515,4.082-8.625,7.4-13.636,7.4H302.515a8.831,8.831,0,0,0-9.08,8.55v5.421a8.831,8.831,0,0,0,9.08,8.55h10.162l1.875,5.027h5.658l-.938-2.514h-2.829l1.875,5.027h5.658l2.928,7.85c1.516,4.065-.968,7.366-5.543,7.366H300.439a8.564,8.564,0,0,0-8.862,8.548l1.64,64.319-4.725-3.563.145,5.7L291,248.985l-.073-2.849-4.725-3.563Z" transform="translate(-178.626 21.015)" fill="url(#linear-gradient)"/>
  </g>
</svg>
